<?xml version="1.0" encoding="utf-8"?>
<!-- Generator: Adobe Illustrator 24.2.1, SVG Export Plug-In . SVG Version: 6.00 Build 0)  -->
<svg version="1.1" id="Capa_1" xmlns="http://www.w3.org/2000/svg" xmlns:xlink="http://www.w3.org/1999/xlink" x="0px" y="0px"
	 viewBox="0 0 799.7 244.9" style="enable-background:new 0 0 799.7 244.9;" xml:space="preserve">
<style type="text/css">
	.st0{fill:#DBE11F;}
	.st1{fill:#75C140;}
	.st2{fill:#82C53C;}
	.st3{fill:#8EC938;}
	.st4{fill:#A8D12F;}
	.st5{fill:#9BCD34;}
	.st6{fill:#B5D52B;}
	.st7{fill:#CEDD23;}
	.st8{fill:#C1D927;}
	.st9{fill:#68BD44;}
	.st10{fill:#FFFFFF;}
</style>
<g>
	<g>
		<path id="path14_7_" class="st0" d="M63.2,57.5c0.8,0,56.7,0,57.5,0C120.3,56.8,92.4,0.9,91.9,0C91.5,0.9,63.6,56.8,63.2,57.5"/>
		<path id="path16_8_" class="st1" d="M126.4,183.8c0.8,0,56.7,0,57.5,0c-0.4-0.7-28.3-56.6-28.7-57.5
			C154.7,127.2,126.7,183.1,126.4,183.8"/>
		<path id="path18_8_" class="st2" d="M94.8,124.2c0.4,0.7,28.3,56.6,28.7,57.5c0.4-0.9,28.4-56.8,28.7-57.5
			C151.4,124.2,95.6,124.2,94.8,124.2"/>
		<path id="path20_8_" class="st3" d="M63.2,183.8c0.8,0,56.7,0,57.5,0c-0.4-0.7-28.3-56.6-28.7-57.5
			C91.5,127.2,63.6,183.1,63.2,183.8"/>
		<path id="path22_8_" class="st4" d="M0,183.8c0.8,0,56.7,0,57.5,0c-0.4-0.7-28.3-56.6-28.7-57.5C28.3,127.2,0.4,183.1,0,183.8"/>
		<path id="path24_8_" class="st5" d="M31.6,124.2c0.3,0.7,28.3,56.7,28.7,57.5c0.4-0.9,28.4-56.8,28.7-57.5
			C88.3,124.2,32.4,124.2,31.6,124.2"/>
		<path id="path26_8_" class="st6" d="M94.8,120.6c0.8,0,56.7,0,57.5,0c-0.4-0.7-28.3-56.6-28.7-57.5
			C123.1,64,95.1,119.9,94.8,120.6"/>
		<path id="path28_8_" class="st7" d="M31.6,120.6c0.8,0,56.7,0,57.5,0c-0.4-0.7-28.3-56.7-28.7-57.5C59.9,64,31.9,119.9,31.6,120.6
			"/>
		<path id="path30_8_" class="st8" d="M63.2,60.9c0.4,0.7,28.3,56.7,28.7,57.5c0.4-0.9,28.4-56.8,28.7-57.5
			C119.9,60.9,64,60.9,63.2,60.9"/>
		<path id="path32_8_" class="st9" d="M63.2,187.4c0.4,0.7,28.3,56.7,28.7,57.5c0.4-0.9,28.4-56.8,28.7-57.5
			C119.9,187.4,64,187.4,63.2,187.4"/>
	</g>
	<polygon class="st10" points="212.8,100.3 225.9,91.4 228.1,89.9 229.1,89.2 229.7,88.8 229.7,89.6 229.7,183.2 248.2,183.2 
		248.2,60.7 212.8,81.6 	"/>
	<path class="st10" d="M343.7,100.5c0-28.7-20.2-41.6-40.2-41.6s-40.2,12.9-40.2,41.6v44c0,28.7,20.2,41.6,40.2,41.6
		s40.2-12.9,40.2-41.6V100.5z M325.1,145.9c0,15.7-10.8,22.8-21.6,22.8c-10.7,0-21.6-7.1-21.6-22.8V99.1c0-15.7,10.8-22.8,21.6-22.8
		s21.6,7.1,21.6,22.8V145.9z"/>
	<path class="st10" d="M425.2,143.3c25.8,0,43.1-16.4,43.1-40.9S451,61.5,425.2,61.5h-52.5v121.7h18.4v-39.5v-0.4h0.4L425.2,143.3
		L425.2,143.3z M391.1,125.6V79.1v-0.4h0.4h31.8c19.5,0,26.5,12.8,26.5,23.7c0,10.9-6.9,23.6-26.5,23.6h-31.8h-0.4V125.6z"/>
	<g>
		<polygon class="st10" points="497.8,87.6 478.4,87.6 478.4,87.6 		"/>
		<rect x="478.8" y="88" class="st10" width="18.5" height="95.2"/>
	</g>
	<path class="st10" d="M488.1,57.6c-5.8,0-10.5,4.7-10.5,10.5c0,5.8,4.7,10.5,10.5,10.5c5.8,0,10.5-4.7,10.5-10.5
		C498.6,62.3,493.9,57.6,488.1,57.6z"/>
	<path class="st10" d="M562.8,85.5c-11.8,0-21.4,5.1-27,14.2c-2,3.2-3.7,7-3.7,7l-0.8,1.7v-1.9V88.1h-18.4v95.1h18.4v-53.4
		c0-15.7,9.9-25.9,25.3-25.9c16.2,0,24.5,8.9,24.5,26.3v53h18.4v-57.6C599.5,103.1,583.4,85.5,562.8,85.5z"/>
	<path class="st10" d="M663.1,86c-33.9,0-52.2,25.6-52.2,49.8s18.3,49.8,52.2,49.8c15.9-0.2,31-7.8,42.5-21.3l0.3-0.3l-14.7-8.2
		l-0.2,0.2c-7.6,9.4-17.5,14.4-28.5,14.4c-16.5,0-30.3-11.9-31.6-27.2l-0.1-1.4l0-0.5h0.5h80.8v-2.1C712.1,102.5,683.4,86,663.1,86z
		 M690.8,127.4H631h-0.5l0.1-0.5l0.4-1.6c3.5-14.9,14.7-24.1,29.3-24.1c14.6,0,26,9,30.5,24l0.5,1.6l0.2,0.6L690.8,127.4
		L690.8,127.4z"/>
	<path class="st10" d="M774.8,129.5l-21.2-4c-12.3-2.1-13.7-7.6-13.7-11.5c0-8.9,9.6-13.5,19.2-13.5c8.6,0,17.1,3.3,25.4,9.9
		l0.7,0.5l10.3-12.8l-0.8-0.5c-12.2-8.3-23.4-12-36.2-12c-24.4,0-37.1,15.4-37.1,30.7c0,12.2,5.8,21.4,34.1,26.6l11.9,2.2
		c9.1,1.7,13.7,5.9,13.7,12.5c0,6.5-8.3,13.5-20.6,13.5c-10,0-21.9-5.2-30.1-13.2l-0.6-0.6L717.3,170l0.7,0.6
		c13,10.5,26.2,15.4,41.5,15.4c27.6,0,40.2-16.4,40.2-31.7C799.7,140.5,791.8,132.6,774.8,129.5z"/>
</g>
</svg>
